<svg width="1761" height="975" viewBox="0 0 1761 975" fill="none" xmlns="http://www.w3.org/2000/svg">
<rect width="809.304" height="117.046" transform="matrix(0.72892 0.684599 -0.703259 0.710933 683.899 1.62891)" fill="#F4511E"/>
<path d="M0 679.525L674.002 0.000209793L760.041 81.0254L166.315 677.143L0 679.525Z" fill="#F4511E"/>
<rect x="583.795" y="440.808" width="77.0966" height="78.0118" fill="#F4511E"/>
<rect x="681.646" y="440.808" width="77.0966" height="78.0118" fill="#F4511E"/>
<rect x="687.576" y="536.159" width="77.0966" height="78.0118" fill="#F4511E"/>
<rect x="224.998" y="322.349" width="97.8534" height="156.024" fill="#F4511E"/>
<rect x="583.795" y="536.159" width="77.0966" height="78.0118" fill="#F4511E"/>
<path d="M269.189 893.072V747.618H318.336C329.747 747.618 339.075 749.677 346.319 753.797C353.611 757.869 359.009 763.385 362.512 770.345C366.016 777.305 367.768 785.07 367.768 793.64C367.768 802.211 366.016 809.999 362.512 817.007C359.056 824.014 353.706 829.602 346.461 833.768C339.217 837.888 329.937 839.947 318.62 839.947H283.393V824.322H318.052C325.865 824.322 332.138 822.973 336.873 820.274C341.608 817.575 345.041 813.929 347.172 809.336C349.35 804.696 350.439 799.464 350.439 793.64C350.439 787.817 349.35 782.608 347.172 778.015C345.041 773.423 341.584 769.824 336.802 767.22C332.02 764.568 325.675 763.243 317.768 763.243H286.802V893.072H269.189ZM425.971 895.629C419.058 895.629 412.785 894.327 407.15 891.723C401.516 889.071 397.041 885.26 393.727 880.288C390.413 875.269 388.755 869.209 388.755 862.106C388.755 855.856 389.986 850.79 392.449 846.907C394.911 842.978 398.201 839.9 402.321 837.675C406.44 835.449 410.985 833.792 415.957 832.703C420.976 831.567 426.019 830.667 431.085 830.004C437.714 829.152 443.088 828.513 447.207 828.086C451.374 827.613 454.404 826.832 456.298 825.743C458.239 824.654 459.21 822.76 459.21 820.061V819.493C459.21 812.485 457.292 807.04 453.457 803.157C449.669 799.275 443.916 797.334 436.199 797.334C428.197 797.334 421.923 799.086 417.378 802.589C412.832 806.093 409.636 809.834 407.789 813.811L391.88 808.129C394.721 801.5 398.509 796.339 403.244 792.646C408.026 788.906 413.235 786.301 418.869 784.834C424.551 783.318 430.138 782.561 435.63 782.561C439.134 782.561 443.159 782.987 447.704 783.839C452.297 784.644 456.724 786.325 460.985 788.882C465.294 791.439 468.869 795.298 471.71 800.459C474.551 805.62 475.971 812.532 475.971 821.197V893.072H459.21V878.3H458.358C457.221 880.667 455.327 883.2 452.676 885.899C450.024 888.598 446.497 890.894 442.093 892.788C437.69 894.682 432.316 895.629 425.971 895.629ZM428.528 880.572C435.157 880.572 440.744 879.27 445.289 876.666C449.882 874.062 453.339 870.7 455.659 866.581C458.026 862.461 459.21 858.129 459.21 853.584V838.243C458.5 839.095 456.937 839.876 454.522 840.586C452.155 841.249 449.409 841.841 446.284 842.362C443.206 842.836 440.199 843.262 437.264 843.64C434.376 843.972 432.032 844.256 430.233 844.493C425.877 845.061 421.805 845.984 418.017 847.263C414.276 848.494 411.246 850.364 408.926 852.873C406.653 855.336 405.517 858.697 405.517 862.959C405.517 868.782 407.671 873.186 411.98 876.169C416.336 879.104 421.852 880.572 428.528 880.572ZM554.007 783.981V798.186H497.473V783.981H554.007ZM513.951 757.845H530.712V861.822C530.712 866.557 531.399 870.108 532.772 872.476C534.192 874.796 535.991 876.358 538.169 877.163C540.395 877.921 542.739 878.3 545.201 878.3C547.047 878.3 548.562 878.205 549.746 878.015C550.93 877.779 551.877 877.589 552.587 877.447L555.996 892.504C554.86 892.93 553.274 893.356 551.238 893.782C549.202 894.256 546.621 894.493 543.496 894.493C538.761 894.493 534.121 893.475 529.576 891.439C525.078 889.403 521.337 886.301 518.354 882.135C515.418 877.968 513.951 872.712 513.951 866.368V757.845ZM611.323 895.629C604.41 895.629 598.136 894.327 592.502 891.723C586.867 889.071 582.393 885.26 579.079 880.288C575.764 875.269 574.107 869.209 574.107 862.106C574.107 855.856 575.338 850.79 577.8 846.907C580.262 842.978 583.553 839.9 587.672 837.675C591.792 835.449 596.337 833.792 601.309 832.703C606.328 831.567 611.37 830.667 616.436 830.004C623.065 829.152 628.439 828.513 632.559 828.086C636.725 827.613 639.756 826.832 641.65 825.743C643.591 824.654 644.561 822.76 644.561 820.061V819.493C644.561 812.485 642.644 807.04 638.809 803.157C635.021 799.275 629.268 797.334 621.55 797.334C613.548 797.334 607.275 799.086 602.729 802.589C598.184 806.093 594.988 809.834 593.141 813.811L577.232 808.129C580.073 801.5 583.861 796.339 588.596 792.646C593.378 788.906 598.586 786.301 604.221 784.834C609.902 783.318 615.489 782.561 620.982 782.561C624.486 782.561 628.51 782.987 633.056 783.839C637.649 784.644 642.076 786.325 646.337 788.882C650.646 791.439 654.221 795.298 657.061 800.459C659.902 805.62 661.323 812.532 661.323 821.197V893.072H644.561V878.3H643.709C642.573 880.667 640.679 883.2 638.027 885.899C635.376 888.598 631.848 890.894 627.445 892.788C623.042 894.682 617.668 895.629 611.323 895.629ZM613.88 880.572C620.508 880.572 626.096 879.27 630.641 876.666C635.234 874.062 638.69 870.7 641.01 866.581C643.378 862.461 644.561 858.129 644.561 853.584V838.243C643.851 839.095 642.289 839.876 639.874 840.586C637.507 841.249 634.76 841.841 631.635 842.362C628.558 842.836 625.551 843.262 622.615 843.64C619.727 843.972 617.383 844.256 615.584 844.493C611.228 845.061 607.156 845.984 603.368 847.263C599.628 848.494 596.597 850.364 594.277 852.873C592.005 855.336 590.868 858.697 590.868 862.959C590.868 868.782 593.023 873.186 597.331 876.169C601.687 879.104 607.204 880.572 613.88 880.572Z" fill="#F4511E"/>
<path d="M694.189 893.072V747.618H711.802V812.39H789.359V747.618H806.973V893.072H789.359V828.015H711.802V893.072H694.189ZM884.281 895.345C874.432 895.345 865.791 893.001 858.358 888.314C850.971 883.626 845.195 877.068 841.028 868.64C836.909 860.212 834.849 850.364 834.849 839.095C834.849 827.731 836.909 817.812 841.028 809.336C845.195 800.861 850.971 794.28 858.358 789.592C865.791 784.905 874.432 782.561 884.281 782.561C894.129 782.561 902.747 784.905 910.133 789.592C917.567 794.28 923.343 800.861 927.463 809.336C931.629 817.812 933.713 827.731 933.713 839.095C933.713 850.364 931.629 860.212 927.463 868.64C923.343 877.068 917.567 883.626 910.133 888.314C902.747 893.001 894.129 895.345 884.281 895.345ZM884.281 880.288C891.762 880.288 897.917 878.371 902.747 874.535C907.576 870.7 911.151 865.657 913.471 859.407C915.791 853.157 916.951 846.387 916.951 839.095C916.951 831.803 915.791 825.009 913.471 818.711C911.151 812.414 907.576 807.324 902.747 803.442C897.917 799.559 891.762 797.618 884.281 797.618C876.8 797.618 870.645 799.559 865.815 803.442C860.985 807.324 857.411 812.414 855.091 818.711C852.771 825.009 851.61 831.803 851.61 839.095C851.61 846.387 852.771 853.157 855.091 859.407C857.411 865.657 860.985 870.7 865.815 874.535C870.645 878.371 876.8 880.288 884.281 880.288ZM1028.05 848.47V783.981H1044.81V893.072H1028.05V874.606H1026.91C1024.36 880.146 1020.38 884.857 1014.98 888.74C1009.58 892.575 1002.76 894.493 994.526 894.493C987.708 894.493 981.647 893.001 976.344 890.018C971.041 886.988 966.874 882.443 963.844 876.382C960.814 870.274 959.299 862.58 959.299 853.3V783.981H976.06V852.163C976.06 860.118 978.285 866.462 982.736 871.197C987.234 875.932 992.963 878.3 999.924 878.3C1004.09 878.3 1008.33 877.234 1012.64 875.104C1016.99 872.973 1020.64 869.706 1023.57 865.302C1026.56 860.899 1028.05 855.288 1028.05 848.47ZM1152.78 808.413L1137.73 812.675C1136.78 810.165 1135.38 807.727 1133.54 805.359C1131.74 802.944 1129.27 800.956 1126.15 799.393C1123.02 797.831 1119.02 797.05 1114.15 797.05C1107.47 797.05 1101.91 798.588 1097.46 801.666C1093.05 804.696 1090.85 808.555 1090.85 813.243C1090.85 817.409 1092.37 820.7 1095.4 823.115C1098.43 825.53 1103.16 827.542 1109.6 829.152L1125.79 833.129C1135.55 835.497 1142.82 839.119 1147.6 843.996C1152.38 848.825 1154.77 855.051 1154.77 862.675C1154.77 868.925 1152.97 874.512 1149.37 879.436C1145.82 884.36 1140.85 888.243 1134.46 891.084C1128.07 893.925 1120.63 895.345 1112.16 895.345C1101.03 895.345 1091.82 892.93 1084.53 888.101C1077.24 883.271 1072.62 876.216 1070.68 866.936L1086.59 862.959C1088.1 868.83 1090.97 873.233 1095.18 876.169C1099.44 879.104 1105.01 880.572 1111.87 880.572C1119.69 880.572 1125.89 878.915 1130.48 875.601C1135.12 872.239 1137.44 868.214 1137.44 863.527C1137.44 859.739 1136.12 856.567 1133.46 854.01C1130.81 851.406 1126.74 849.464 1121.25 848.186L1103.07 843.925C1093.08 841.557 1085.74 837.888 1081.05 832.916C1076.41 827.897 1074.09 821.623 1074.09 814.095C1074.09 807.94 1075.82 802.495 1079.27 797.76C1082.78 793.025 1087.54 789.308 1093.55 786.609C1099.61 783.91 1106.48 782.561 1114.15 782.561C1124.94 782.561 1133.42 784.928 1139.57 789.663C1145.77 794.398 1150.18 800.648 1152.78 808.413ZM1225.74 895.345C1215.23 895.345 1206.16 893.025 1198.54 888.385C1190.96 883.697 1185.12 877.163 1181 868.782C1176.92 860.354 1174.89 850.553 1174.89 839.379C1174.89 828.205 1176.92 818.356 1181 809.834C1185.12 801.264 1190.84 794.587 1198.18 789.805C1205.57 784.976 1214.19 782.561 1224.04 782.561C1229.72 782.561 1235.33 783.508 1240.87 785.402C1246.41 787.296 1251.45 790.373 1256 794.635C1260.54 798.849 1264.16 804.436 1266.86 811.396C1269.56 818.356 1270.91 826.926 1270.91 837.106V844.209H1186.82V829.72H1253.87C1253.87 823.565 1252.63 818.072 1250.17 813.243C1247.76 808.413 1244.3 804.602 1239.8 801.808C1235.35 799.014 1230.1 797.618 1224.04 797.618C1217.36 797.618 1211.58 799.275 1206.71 802.589C1201.88 805.856 1198.16 810.118 1195.56 815.373C1192.95 820.629 1191.65 826.264 1191.65 832.277V841.936C1191.65 850.175 1193.07 857.158 1195.91 862.888C1198.8 868.569 1202.8 872.902 1207.91 875.885C1213.03 878.82 1218.97 880.288 1225.74 880.288C1230.14 880.288 1234.12 879.673 1237.67 878.442C1241.27 877.163 1244.37 875.269 1246.98 872.76C1249.58 870.203 1251.59 867.031 1253.01 863.243L1269.21 867.788C1267.5 873.281 1264.64 878.11 1260.61 882.277C1256.59 886.396 1251.62 889.616 1245.7 891.936C1239.78 894.209 1233.13 895.345 1225.74 895.345Z" fill="#514F4F"/>
<rect x="1197.6" y="521.709" width="563.398" height="115.573" fill="#F4511E"/>
<line y1="-1" x2="409.301" y2="-1" transform="matrix(-0.999776 -0.0211777 0.0223049 -0.999751 1663.15 576.607)" stroke="#FFFDFD" stroke-width="2"/>
</svg>
